<?xml version="1.0" encoding="UTF-8" standalone="no"?>
<!-- Generiert durch Microsoft Visio, SVG Export m12 pinout Cal.flow onblack.svg m12 generell englisch -->

<svg
   width="6.30051in"
   height="3.02474in"
   viewBox="0 0 453.636 217.781"
   xml:space="preserve"
   color-interpolation-filters="sRGB"
   class="st13"
   version="1.1"
   id="svg27"
   sodipodi:docname="m12 pinout kalibox onblack.svg"
   inkscape:version="1.3 (0e150ed6c4, 2023-07-21)"
   xmlns:inkscape="http://www.inkscape.org/namespaces/inkscape"
   xmlns:sodipodi="http://sodipodi.sourceforge.net/DTD/sodipodi-0.dtd"
   xmlns="http://www.w3.org/2000/svg"
   xmlns:svg="http://www.w3.org/2000/svg"
   xmlns:v="http://schemas.microsoft.com/visio/2003/SVGExtensions/"><defs
   id="defs27"><style
     id="style1-9">&#10;      .cls-1 {&#10;        fill: #445052;&#10;      }&#10;&#10;      .cls-1, .cls-2 {&#10;        stroke-width: 0px;&#10;      }&#10;&#10;      .cls-2 {&#10;        fill: #e1043d;&#10;      }&#10;    </style></defs><sodipodi:namedview
   id="namedview27"
   pagecolor="#505050"
   bordercolor="#eeeeee"
   borderopacity="1"
   inkscape:showpageshadow="0"
   inkscape:pageopacity="0"
   inkscape:pagecheckerboard="0"
   inkscape:deskcolor="#505050"
   inkscape:document-units="in"
   inkscape:zoom="2.3319872"
   inkscape:cx="404.16174"
   inkscape:cy="236.49358"
   inkscape:window-width="3840"
   inkscape:window-height="2097"
   inkscape:window-x="-8"
   inkscape:window-y="-8"
   inkscape:window-maximized="1"
   inkscape:current-layer="shape11-8" />&#10;	<v:documentProperties
   v:langID="1031"
   v:metric="true"
   v:viewMarkup="false">&#10;		<v:userDefs>&#10;			<v:ud
   v:nameU="msvNoAutoConnect"
   v:val="VT0(1):26" />&#10;		</v:userDefs>&#10;	</v:documentProperties>&#10;&#10;	<style
   type="text/css"
   id="style1">&#10;	<![CDATA[
		.st1 {fill:#0c0c0c;stroke:#7f7f7f;stroke-linecap:round;stroke-linejoin:round;stroke-width:3}
		.st2 {fill:#3f3f3f;stroke:#000000;stroke-linecap:round;stroke-linejoin:round;stroke-width:0.75}
		.st3 {stroke:#000000;stroke-linecap:round;stroke-linejoin:round;stroke-width:9.25}
		.st4 {fill:none;stroke:none;stroke-linecap:round;stroke-linejoin:round;stroke-width:0.75}
		.st5 {fill:#f2f2f2;font-family:Arial;font-size:1.16666em;font-weight:bold}
		.st6 {font-size:1em}
		.st7 {fill:#f2f2f2;font-family:Arial;font-size:1.16666em}
		.st8 {font-size:1em;font-style:italic}
		.st9 {baseline-shift:-32.4943%;font-size:0.649886em;font-style:italic}
		.st10 {stroke:#595959;stroke-linecap:round;stroke-linejoin:round;stroke-width:1.5}
		.st11 {fill:#262626;stroke:#0c0c0c;stroke-linecap:round;stroke-linejoin:round;stroke-width:3.5}
		.st12 {fill:#f2f2f2;font-family:Arial;font-size:0.833336em;font-style:italic}
		.st13 {fill:none;fill-rule:evenodd;font-size:12px;overflow:visible;stroke-linecap:square;stroke-miterlimit:3}
	]]>&#10;	</style>&#10;&#10;	<g
   v:mID="8"
   v:index="4"
   v:groupContext="foregroundPage"
   id="g27">&#10;		<title
   id="title1">m12 generell englisch</title>&#10;		<v:pageProperties
   v:drawingScale="0.0393701"
   v:pageScale="0.0393701"
   v:drawingUnits="24"
   v:shadowOffsetX="8.50394"
   v:shadowOffsetY="-8.50394" />&#10;		<g
   id="shape2-1"
   v:mID="2"
   v:groupContext="shape"
   transform="translate(61.8555,-58.5194)">&#10;			<title
   id="title2">Tabelle.2</title>&#10;			<ellipse
   cx="38.7793"
   cy="179.002"
   rx="38.7793"
   ry="38.7793"
   class="st1"
   id="ellipse2" />&#10;		</g>&#10;		<g
   id="shape3-3"
   v:mID="3"
   v:groupContext="shape"
   transform="translate(68.5673,-65.2312)">&#10;			<title
   id="title3">Tabelle.3</title>&#10;			<ellipse
   cx="32.0675"
   cy="185.714"
   rx="32.0675"
   ry="32.0675"
   class="st2"
   id="ellipse3" />&#10;		</g>&#10;		<g
   id="shape4-5"
   v:mID="4"
   v:groupContext="shape"
   transform="translate(318.416,88.415) rotate(90)">&#10;			<title
   id="title4">Tabelle.4</title>&#10;			<path
   d="M0 217.78 L5.12 217.78"
   class="st3"
   id="path4" />&#10;		</g>&#10;		<g
   id="shape11-8"
   v:mID="11"
   v:groupContext="shape"
   transform="translate(25.3626,-162.992)">&#10;			<title
   id="title5">Tabelle.11</title>&#10;			<desc
   id="desc5">Cal.flow M12 pinout</desc>&#10;			<v:textBlock
   v:margins="rect(4,4,4,4)"
   v:tabSpace="42.5197" />&#10;			<v:textRect
   cx="78.1078"
   cy="207.781"
   width="156.22"
   height="20" />&#10;			<rect
   x="0"
   y="197.781"
   width="156.216"
   height="20"
   class="st4"
   id="rect5" />&#10;			<text
   x="38.43"
   y="203.58"
   class="st5"
   v:langID="1031"
   id="text5"><v:paragraph
   v:horizAlign="1" /><v:tabList />    <v:lf /><tspan
   x="41.169998"
   dy="1.2em"
   class="st6"
   id="tspan5">M12 pinout</tspan></text>		<g
   id="g28"
   transform="matrix(0.20656789,0,0,0.20656789,48.745502,192.92143)"><g
     id="g5"><path
       class="cls-1"
       d="m 150.91,59.76 c 0,1.96 -1.59,3.55 -3.62,3.55 -2.03,0 -3.55,-1.59 -3.55,-3.55 0,-1.96 1.59,-3.62 3.55,-3.62 1.96,0 3.62,1.59 3.62,3.62 z"
       id="path1"
       style="fill:#f2f2f2" /><path
       class="cls-1"
       d="m 166.67,62.59 h -5.15 v -25.3 h -2.83 v -4.78 h 2.83 V 19.75 c 0,-7.25 2.9,-10.8 8.77,-10.8 1.52,0 2.25,0.14 3.99,0.58 v 5.22 c -1.6,-0.51 -2.32,-0.65 -3.48,-0.65 -3.26,0 -4.13,1.45 -4.13,6.81 v 11.6 h 7.61 v 4.78 h -7.61 z"
       id="path2"
       style="fill:#f2f2f2" /><path
       class="cls-1"
       d="M 184.25,62.59 H 179.1 V 9.74 h 5.15 z"
       id="path3"
       style="fill:#f2f2f2" /><path
       class="cls-1"
       d="m 223.4,47.65 c 0,8.92 -6.96,15.8 -15.95,15.8 -8.99,0 -15.88,-7.03 -15.88,-16.09 0,-8.48 7.18,-15.51 15.88,-15.51 8.7,0 15.95,6.89 15.95,15.8 z m -26.54,0 c 0,6.38 4.5,11.09 10.51,11.09 6.01,0 10.73,-4.64 10.73,-11.09 0,-6.45 -4.42,-11.09 -10.73,-11.09 -6.31,0 -10.51,4.71 -10.51,11.09 z"
       id="path4-9"
       style="fill:#f2f2f2" /><path
       class="cls-1"
       d="m 240.09,52.88 9.42,-22.69 9.35,22.69 8.99,-20.37 h 5.8 L 258.71,64.7 249.43,42.3 240.15,64.7 225.36,32.51 h 5.8 l 8.92,20.37 z"
       id="path5"
       style="fill:#f2f2f2" /></g><g
     id="g7"><path
       class="cls-2"
       d="M 44.57,24.57 C 39.74,18.47 32.76,16.7 28.06,16.7 c -9.78,0 -18.67,6.86 -18.67,19.68 0,12.82 9.14,19.56 18.54,19.56 5.46,0 12.19,-2.41 17.02,-8.25 V 58.61 C 39.24,62.8 33.14,64.07 28.19,64.07 11.81,64.07 0,52.39 0,36.51 0,20.63 11.94,8.57 28.19,8.57 c 8.38,0 13.84,3.3 16.38,5.08 z"
       id="path6" /><path
       class="cls-2"
       d="m 93.83,9.84 h 9.14 v 52.7 h -9.14 v -7.37 c -3.05,3.94 -8.76,8.89 -18.03,8.89 -13.33,0 -25.65,-9.4 -25.65,-27.94 0,-18.54 12.19,-27.56 25.65,-27.56 10.16,0 15.62,5.59 18.03,8.76 V 9.83 Z M 59.54,36.13 c 0,11.3 6.35,19.81 17.27,19.81 10.92,0 17.53,-9.27 17.53,-19.68 0,-13.59 -9.4,-19.56 -17.53,-19.56 -9.02,0 -17.27,6.6 -17.27,19.43 z"
       id="path7" /></g><path
     class="cls-2"
     d="m 127.4,63.64 c -4.15,0 -7.92,-1.21 -10.44,-3.26 -4.65,-3.74 -5.03,-9.54 -5.03,-14.12 V 0 h 9.05 v 45.29 c 0,2.66 0,5.43 1.13,7.24 1.38,2.17 3.77,2.66 5.78,2.66 1.89,0 4.02,-0.36 5.91,-1.09 v 8.45 c -1.01,0.36 -3.14,1.09 -6.41,1.09 z"
     id="path8" /></g></g>&#10;		<g
   id="shape14-12"
   v:mID="14"
   v:groupContext="shape"
   transform="translate(160.157,-57.087)">&#10;			<title
   id="title6">Tabelle.14</title>&#10;			<desc
   id="desc6">Pin 1: Ub = 24 V Pin 2: Channel A Pin 3: GND Pin 4: Channel B</desc>&#10;			<v:textBlock
   v:margins="rect(4,4,4,4)"
   v:tabSpace="42.5197"
   v:verticalAlign="0" />&#10;			<v:textRect
   cx="61.6535"
   cy="179.002"
   width="123.31"
   height="77.5586" />&#10;			<rect
   x="0"
   y="140.223"
   width="123.307"
   height="77.5586"
   class="st4"
   id="rect6" />&#10;			<text
   x="4"
   y="156.85"
   class="st7"
   v:langID="1031"
   id="text14"><v:paragraph /><v:tabList />Pin 1: <v:tabChar /><tspan
   dx="0.202em"
   class="st8"
   id="tspan6">U</tspan><tspan
   dy="-0.287em"
   class="st9"
   v:baseFontSize="14"
   id="tspan7">b</tspan><tspan
   dy="0.186em"
   class="st6"
   id="tspan8"> </tspan>= 24 V<v:newlineChar /><tspan
   x="4"
   dy="1.201em"
   class="st6"
   id="tspan9">Pin 2: <v:tabChar /></tspan><tspan
   dx="0.202em"
   class="st6"
   id="tspan10">Channel A<v:newlineChar /></tspan><tspan
   x="4"
   dy="1.2em"
   class="st6"
   id="tspan11">Pin 3: <v:tabChar /></tspan><tspan
   dx="0.202em"
   class="st6"
   id="tspan12">GND<v:newlineChar /></tspan><tspan
   x="4"
   dy="1.2em"
   class="st6"
   id="tspan13">Pin 4: <v:tabChar /></tspan><tspan
   dx="0.202em"
   class="st6"
   id="tspan14">Channel B</tspan><v:newlineChar /><v:newlineChar /></text>		</g>&#10;		<g
   id="shape22-24"
   v:mID="22"
   v:groupContext="shape"
   transform="translate(127.608,-129.044)">&#10;			<title
   id="title14">Tabelle.22</title>&#10;			<desc
   id="desc14">2</desc>&#10;			<v:textBlock
   v:margins="rect(4,4,4,4)"
   v:tabSpace="42.5197" />&#10;			<v:textRect
   cx="8.36352"
   cy="210.766"
   width="16.73"
   height="14.0313" />&#10;			<rect
   x="0"
   y="203.75"
   width="16.727"
   height="14.0313"
   class="st4"
   id="rect14" />&#10;			<text
   x="4.47"
   y="214.97"
   class="st7"
   v:langID="1031"
   id="text15"><v:paragraph
   v:horizAlign="1" /><v:tabList />2</text>		</g>&#10;		<g
   id="shape24-27"
   v:mID="24"
   v:groupContext="shape"
   transform="translate(55.3248,-129.044)">&#10;			<title
   id="title15">Tabelle.24</title>&#10;			<desc
   id="desc15">1</desc>&#10;			<v:textBlock
   v:margins="rect(4,4,4,4)"
   v:tabSpace="42.5197" />&#10;			<v:textRect
   cx="8.36352"
   cy="210.766"
   width="16.73"
   height="14.0313" />&#10;			<rect
   x="0"
   y="203.75"
   width="16.727"
   height="14.0313"
   class="st4"
   id="rect15" />&#10;			<text
   x="4.47"
   y="214.97"
   class="st7"
   v:langID="1031"
   id="text16"><v:paragraph
   v:horizAlign="1" /><v:tabList />1</text>		</g>&#10;		<g
   id="shape25-30"
   v:mID="25"
   v:groupContext="shape"
   transform="translate(55.4678,-51.9421)">&#10;			<title
   id="title16">Tabelle.25</title>&#10;			<desc
   id="desc16">4</desc>&#10;			<v:textBlock
   v:margins="rect(4,4,4,4)"
   v:tabSpace="42.5197" />&#10;			<v:textRect
   cx="8.36352"
   cy="210.766"
   width="16.73"
   height="14.0313" />&#10;			<rect
   x="0"
   y="203.75"
   width="16.727"
   height="14.0313"
   class="st4"
   id="rect16" />&#10;			<text
   x="4.47"
   y="214.97"
   class="st7"
   v:langID="1031"
   id="text17"><v:paragraph
   v:horizAlign="1" /><v:tabList />4</text>		</g>&#10;		<g
   id="shape26-33"
   v:mID="26"
   v:groupContext="shape"
   transform="translate(128.742,-53.4304)">&#10;			<title
   id="title17">Tabelle.26</title>&#10;			<desc
   id="desc17">3</desc>&#10;			<v:textBlock
   v:margins="rect(4,4,4,4)"
   v:tabSpace="42.5197" />&#10;			<v:textRect
   cx="8.36352"
   cy="210.766"
   width="16.73"
   height="14.0313" />&#10;			<rect
   x="0"
   y="203.75"
   width="16.727"
   height="14.0313"
   class="st4"
   id="rect17" />&#10;			<text
   x="4.47"
   y="214.97"
   class="st7"
   v:langID="1031"
   id="text18"><v:paragraph
   v:horizAlign="1" /><v:tabList />3</text>		</g>&#10;		<g
   id="shape30-36"
   v:mID="30"
   v:groupContext="shape"
   transform="translate(-36.9282,-50.5176) rotate(-45)">&#10;			<title
   id="title18">Tabelle.30</title>&#10;			<path
   d="M0 217.78 L21.54 217.78"
   class="st10"
   id="path18" />&#10;		</g>&#10;		<g
   id="shape31-39"
   v:mID="31"
   v:groupContext="shape"
   transform="translate(-85.2183,-1.44224) rotate(-45)">&#10;			<title
   id="title19">Tabelle.31</title>&#10;			<path
   d="M0 217.78 L21.54 217.78"
   class="st10"
   id="path19" />&#10;		</g>&#10;		<g
   id="shape32-42"
   v:mID="32"
   v:groupContext="shape"
   transform="translate(286.672,-1.62463) rotate(45) scale(-1,1)">&#10;			<title
   id="title20">Tabelle.32</title>&#10;			<path
   d="M0 217.78 L21.54 217.78"
   class="st10"
   id="path20" />&#10;		</g>&#10;		<g
   id="shape33-45"
   v:mID="33"
   v:groupContext="shape"
   transform="translate(237.779,-50.1232) rotate(45) scale(-1,1)">&#10;			<title
   id="title21">Tabelle.33</title>&#10;			<path
   d="M0 217.78 L21.54 217.78"
   class="st10"
   id="path21" />&#10;		</g>&#10;		<g
   id="shape6-48"
   v:mID="6"
   v:groupContext="shape"
   transform="translate(96.6574,-93.3214)">&#10;			<title
   id="title22">Tabelle.6</title>&#10;			<ellipse
   cx="3.97737"
   cy="213.804"
   rx="3.97737"
   ry="3.97737"
   class="st11"
   id="ellipse22" />&#10;		</g>&#10;		<g
   id="shape7-50"
   v:mID="7"
   v:groupContext="shape"
   transform="translate(82.7367,-79.4006)">&#10;			<title
   id="title23">Tabelle.7</title>&#10;			<ellipse
   cx="3.97737"
   cy="213.804"
   rx="3.97737"
   ry="3.97737"
   class="st11"
   id="ellipse23" />&#10;		</g>&#10;		<g
   id="shape8-52"
   v:mID="8"
   v:groupContext="shape"
   transform="translate(110.578,-79.4006)">&#10;			<title
   id="title24">Tabelle.8</title>&#10;			<ellipse
   cx="3.97737"
   cy="213.804"
   rx="3.97737"
   ry="3.97737"
   class="st11"
   id="ellipse24" />&#10;		</g>&#10;		<g
   id="shape9-54"
   v:mID="9"
   v:groupContext="shape"
   transform="translate(82.7367,-107.242)">&#10;			<title
   id="title25">Tabelle.9</title>&#10;			<ellipse
   cx="3.97737"
   cy="213.804"
   rx="3.97737"
   ry="3.97737"
   class="st11"
   id="ellipse25" />&#10;		</g>&#10;		<g
   id="shape10-56"
   v:mID="10"
   v:groupContext="shape"
   transform="translate(110.578,-107.242)">&#10;			<title
   id="title26">Tabelle.10</title>&#10;			<ellipse
   cx="3.97737"
   cy="213.804"
   rx="3.97737"
   ry="3.97737"
   class="st11"
   id="ellipse26" />&#10;		</g>&#10;		<g
   id="shape34-58"
   v:mID="34"
   v:groupContext="shape"
   transform="translate(68.401,-30.4569)">&#10;			<title
   id="title27">Tabelle.34</title>&#10;			<desc
   id="desc27">(FEMALE)</desc>&#10;			<v:textBlock
   v:margins="rect(4,4,4,4)"
   v:tabSpace="42.5197" />&#10;			<v:textRect
   cx="32.0675"
   cy="210.766"
   width="64.14"
   height="14.0313" />&#10;			<rect
   x="0"
   y="203.75"
   width="64.135"
   height="14.0313"
   class="st4"
   id="rect27" />&#10;			<text
   x="8.73"
   y="213.77"
   class="st12"
   v:langID="1031"
   id="text27"><v:paragraph
   v:horizAlign="1" /><v:tabList />(FEMALE)</text>		</g>&#10;	</g>&#10;</svg>
