<?xml version="1.0" encoding="UTF-8"?>
<svg id="Ebene_1" data-name="Ebene 1" xmlns="http://www.w3.org/2000/svg" viewBox="0 0 307.33 63.11">
  <defs>
    <style>
      .cls-1 {
        fill: #445052;
      }

      .cls-1, .cls-2 {
        stroke-width: 0px;
      }

      .cls-2 {
        fill: #e1043d;
      }
    </style>
  </defs>
  <g>
    <g>
      <path class="cls-2" d="m220.07,24.21c-4.75-6-11.63-7.76-16.26-7.76-9.63,0-18.39,6.76-18.39,19.39s9.01,19.26,18.26,19.26c5.38,0,12.01-2.38,16.76-8.13v10.76c-5.63,4.13-11.63,5.38-16.51,5.38-16.14,0-27.77-11.51-27.77-27.14s11.76-27.52,27.77-27.52c8.26,0,13.63,3.25,16.14,5v10.76Z"/>
      <path class="cls-2" d="m268.59,9.7h9.01v51.91h-9.01v-7.26c-3,3.88-8.63,8.76-17.76,8.76-13.13,0-25.27-9.26-25.27-27.52s12.01-27.14,25.27-27.14c10.01,0,15.39,5.5,17.76,8.63v-7.38Zm-33.77,25.89c0,11.13,6.25,19.51,17.01,19.51s17.26-9.13,17.26-19.39c0-13.38-9.26-19.26-17.26-19.26-8.88,0-17.01,6.51-17.01,19.14Z"/>
    </g>
    <path class="cls-2" d="m301.01,62.68c-4.09,0-7.8-1.19-10.28-3.21-4.58-3.68-4.95-9.39-4.95-13.91V0h8.92v44.61c0,2.62,0,5.35,1.11,7.13,1.36,2.14,3.71,2.62,5.7,2.62,1.86,0,3.96-.36,5.82-1.07v8.32c-.99.36-3.1,1.07-6.32,1.07Z"/>
  </g>
  <g>
    <path class="cls-1" d="m29.57,21.03H13.51v8.69h15.17v11.44h-15.17v8.96h16.06v11.44H0V9.59h29.57v11.44Z"/>
    <path class="cls-1" d="m71.13,52.53h-19.3l-3.1,9.03h-14.41L54.11,9.59h14.75l19.78,51.97h-14.41l-3.1-9.03Zm-3.58-10.27l-6.07-17.3-6.07,17.3h12.13Z"/>
    <path class="cls-1" d="m121.93,22.89c-1.47-1.19-2.94-2.08-4.41-2.65-1.47-.57-2.89-.86-4.27-.86-1.74,0-3.17.42-4.27,1.24-1.11.83-1.65,1.91-1.65,3.24,0,.92.27,1.68.83,2.27.55.6,1.27,1.11,2.17,1.55.89.44,1.91.82,3.03,1.14,1.13.32,2.24.67,3.34,1.03,4.41,1.47,7.64,3.44,9.68,5.89,2.04,2.46,3.07,5.67,3.07,9.62,0,2.66-.45,5.08-1.34,7.24-.9,2.16-2.21,4.01-3.93,5.55-1.72,1.54-3.84,2.73-6.34,3.58-2.5.85-5.34,1.28-8.51,1.28-6.57,0-12.66-1.95-18.27-5.86l5.79-10.89c2.02,1.79,4.02,3.12,6,4,1.98.87,3.93,1.31,5.86,1.31,2.21,0,3.85-.5,4.93-1.51,1.08-1.01,1.62-2.16,1.62-3.45,0-.78-.14-1.46-.41-2.03-.28-.57-.74-1.1-1.38-1.58-.65-.48-1.48-.93-2.52-1.34-1.03-.42-2.29-.88-3.76-1.38-1.75-.55-3.46-1.16-5.14-1.83-1.68-.67-3.17-1.55-4.48-2.65-1.31-1.11-2.37-2.49-3.17-4.17-.8-1.68-1.21-3.8-1.21-6.38s.42-4.9,1.27-7c.85-2.09,2.04-3.88,3.58-5.38,1.54-1.49,3.42-2.65,5.65-3.48,2.23-.83,4.72-1.24,7.48-1.24,2.57,0,5.26.36,8.07,1.07,2.8.71,5.49,1.76,8.06,3.14l-5.38,10.55Z"/>
    <path class="cls-1" d="m148.32,34.47l-17.49-24.92h14.88l8.9,13.1,8.84-13.1h14.88l-17.55,24.92v27.05h-12.46v-27.05Z"/>
  </g>
</svg>